<mxfile host="app.diagrams.net" modified="2024-03-07T22:35:58.866Z" agent="Mozilla/5.0 (Windows NT 10.0; Win64; x64) AppleWebKit/537.36 (KHTML, like Gecko) Chrome/122.0.0.0 Safari/537.36" etag="hphhwLJLlZdOvtQ115N4" version="24.0.2" type="github">
  <diagram name="Strona-1" id="aJGBvKgjVkTfJNS2zwmO">
    <mxGraphModel dx="1434" dy="866" grid="1" gridSize="10" guides="1" tooltips="1" connect="1" arrows="1" fold="1" page="1" pageScale="1" pageWidth="827" pageHeight="1169" math="0" shadow="0">
      <root>
        <mxCell id="0" />
        <mxCell id="1" parent="0" />
        <mxCell id="8HvOjgPTFlzFhQDVZU8o-3" style="edgeStyle=orthogonalEdgeStyle;rounded=0;orthogonalLoop=1;jettySize=auto;html=1;exitX=0.5;exitY=1;exitDx=0;exitDy=0;" edge="1" parent="1" source="8HvOjgPTFlzFhQDVZU8o-1">
          <mxGeometry relative="1" as="geometry">
            <mxPoint x="300" y="310" as="targetPoint" />
            <Array as="points">
              <mxPoint x="414" y="275" />
              <mxPoint x="301" y="275" />
            </Array>
          </mxGeometry>
        </mxCell>
        <mxCell id="8HvOjgPTFlzFhQDVZU8o-4" style="edgeStyle=orthogonalEdgeStyle;rounded=0;orthogonalLoop=1;jettySize=auto;html=1;exitX=0.5;exitY=1;exitDx=0;exitDy=0;" edge="1" parent="1" source="8HvOjgPTFlzFhQDVZU8o-1">
          <mxGeometry relative="1" as="geometry">
            <mxPoint x="540" y="310" as="targetPoint" />
          </mxGeometry>
        </mxCell>
        <mxCell id="8HvOjgPTFlzFhQDVZU8o-5" style="edgeStyle=orthogonalEdgeStyle;rounded=0;orthogonalLoop=1;jettySize=auto;html=1;exitX=0.5;exitY=1;exitDx=0;exitDy=0;" edge="1" parent="1" source="8HvOjgPTFlzFhQDVZU8o-11">
          <mxGeometry relative="1" as="geometry">
            <mxPoint x="414" y="450" as="targetPoint" />
          </mxGeometry>
        </mxCell>
        <mxCell id="8HvOjgPTFlzFhQDVZU8o-1" value="App" style="whiteSpace=wrap;html=1;aspect=fixed;" vertex="1" parent="1">
          <mxGeometry x="374" y="160" width="80" height="80" as="geometry" />
        </mxCell>
        <mxCell id="8HvOjgPTFlzFhQDVZU8o-6" value="About Me" style="whiteSpace=wrap;html=1;" vertex="1" parent="1">
          <mxGeometry x="260" y="310" width="80" height="60" as="geometry" />
        </mxCell>
        <mxCell id="8HvOjgPTFlzFhQDVZU8o-10" style="edgeStyle=orthogonalEdgeStyle;rounded=0;orthogonalLoop=1;jettySize=auto;html=1;exitX=0.5;exitY=1;exitDx=0;exitDy=0;entryX=0.5;entryY=0;entryDx=0;entryDy=0;" edge="1" parent="1" source="8HvOjgPTFlzFhQDVZU8o-13" target="8HvOjgPTFlzFhQDVZU8o-9">
          <mxGeometry relative="1" as="geometry" />
        </mxCell>
        <mxCell id="8HvOjgPTFlzFhQDVZU8o-7" value="Skills" style="whiteSpace=wrap;html=1;" vertex="1" parent="1">
          <mxGeometry x="374" y="450" width="80" height="60" as="geometry" />
        </mxCell>
        <mxCell id="8HvOjgPTFlzFhQDVZU8o-8" value="Introduction" style="whiteSpace=wrap;html=1;" vertex="1" parent="1">
          <mxGeometry x="500" y="310" width="80" height="60" as="geometry" />
        </mxCell>
        <mxCell id="8HvOjgPTFlzFhQDVZU8o-9" value="Skill" style="whiteSpace=wrap;html=1;" vertex="1" parent="1">
          <mxGeometry x="374" y="620" width="80" height="60" as="geometry" />
        </mxCell>
        <mxCell id="8HvOjgPTFlzFhQDVZU8o-12" value="" style="edgeStyle=orthogonalEdgeStyle;rounded=0;orthogonalLoop=1;jettySize=auto;html=1;exitX=0.5;exitY=1;exitDx=0;exitDy=0;" edge="1" parent="1" source="8HvOjgPTFlzFhQDVZU8o-1" target="8HvOjgPTFlzFhQDVZU8o-11">
          <mxGeometry relative="1" as="geometry">
            <mxPoint x="414" y="450" as="targetPoint" />
            <mxPoint x="414" y="240" as="sourcePoint" />
          </mxGeometry>
        </mxCell>
        <mxCell id="8HvOjgPTFlzFhQDVZU8o-11" value="skills:&lt;div&gt;string list&lt;/div&gt;" style="ellipse;whiteSpace=wrap;html=1;aspect=fixed;" vertex="1" parent="1">
          <mxGeometry x="384" y="310" width="60" height="60" as="geometry" />
        </mxCell>
        <mxCell id="8HvOjgPTFlzFhQDVZU8o-14" value="" style="edgeStyle=orthogonalEdgeStyle;rounded=0;orthogonalLoop=1;jettySize=auto;html=1;exitX=0.5;exitY=1;exitDx=0;exitDy=0;entryX=0.5;entryY=0;entryDx=0;entryDy=0;" edge="1" parent="1" source="8HvOjgPTFlzFhQDVZU8o-7" target="8HvOjgPTFlzFhQDVZU8o-13">
          <mxGeometry relative="1" as="geometry">
            <mxPoint x="414" y="510" as="sourcePoint" />
            <mxPoint x="414" y="620" as="targetPoint" />
          </mxGeometry>
        </mxCell>
        <mxCell id="8HvOjgPTFlzFhQDVZU8o-13" value="skill:string" style="ellipse;whiteSpace=wrap;html=1;aspect=fixed;" vertex="1" parent="1">
          <mxGeometry x="384" y="540" width="60" height="60" as="geometry" />
        </mxCell>
        <mxCell id="8HvOjgPTFlzFhQDVZU8o-15" value="bio: string" style="ellipse;whiteSpace=wrap;html=1;aspect=fixed;" vertex="1" parent="1">
          <mxGeometry x="270" y="220" width="60" height="60" as="geometry" />
        </mxCell>
        <mxCell id="8HvOjgPTFlzFhQDVZU8o-16" value="photoUrl: string&lt;div&gt;firstName: string&lt;/div&gt;&lt;div&gt;lastName: string&lt;/div&gt;&lt;div&gt;companyName: string&lt;/div&gt;" style="ellipse;whiteSpace=wrap;html=1;aspect=fixed;" vertex="1" parent="1">
          <mxGeometry x="500" y="150" width="130" height="130" as="geometry" />
        </mxCell>
      </root>
    </mxGraphModel>
  </diagram>
</mxfile>
